<svg width="180" height="48" viewBox="0 0 180 48" fill="none" xmlns="http://www.w3.org/2000/svg">
<g clip-path="url(#clip0_1_35)">
<rect width="180" height="48" rx="6" fill="#0A66C2"/>
<g clip-path="url(#clip1_1_35)">
<path d="M30.447 32.452H26.893V26.883C26.893 25.555 26.866 23.846 25.041 23.846C23.188 23.846 22.905 25.291 22.905 26.785V32.452H19.351V21H22.765V22.561H22.811C23.288 21.661 24.448 20.711 26.181 20.711C29.782 20.711 30.448 23.081 30.448 26.166L30.447 32.452ZM15.337 19.433C15.0658 19.4334 14.7972 19.3802 14.5466 19.2766C14.296 19.1729 14.0683 19.0208 13.8766 18.8289C13.685 18.6371 13.5331 18.4093 13.4297 18.1586C13.3262 17.9079 13.2733 17.6392 13.274 17.368C13.2742 16.9598 13.3954 16.5608 13.6224 16.2215C13.8494 15.8822 14.1718 15.6178 14.5491 15.4617C14.9263 15.3057 15.3413 15.265 15.7416 15.3449C16.142 15.4247 16.5097 15.6214 16.7982 15.9102C17.0867 16.199 17.2831 16.5669 17.3625 16.9673C17.442 17.3677 17.4009 17.7827 17.2445 18.1598C17.0881 18.5369 16.8234 18.8591 16.4839 19.0857C16.1443 19.3123 15.7452 19.4332 15.337 19.433ZM17.119 32.452H13.555V21H17.119V32.452ZM32.225 12H11.771C10.792 12 10 12.774 10 13.729V34.271C10 35.227 10.792 36 11.771 36H32.222C33.2 36 34 35.227 34 34.271V13.729C34 12.774 33.2 12 32.222 12H32.225Z" fill="white"/>
</g>
<path d="M44.8849 29.5V19.3182H51.6264V21.093H47.0376V23.5192H51.179V25.294H47.0376V29.5H44.8849ZM55.9244 29.6491C55.1521 29.6491 54.4843 29.4851 53.9208 29.157C53.3607 28.8255 52.9281 28.3648 52.6232 27.7749C52.3183 27.1816 52.1658 26.4938 52.1658 25.7116C52.1658 24.9228 52.3183 24.2334 52.6232 23.6435C52.9281 23.0502 53.3607 22.5895 53.9208 22.2614C54.4843 21.9299 55.1521 21.7642 55.9244 21.7642C56.6966 21.7642 57.3628 21.9299 57.9229 22.2614C58.4864 22.5895 58.9206 23.0502 59.2255 23.6435C59.5304 24.2334 59.6829 24.9228 59.6829 25.7116C59.6829 26.4938 59.5304 27.1816 59.2255 27.7749C58.9206 28.3648 58.4864 28.8255 57.9229 29.157C57.3628 29.4851 56.6966 29.6491 55.9244 29.6491ZM55.9343 28.0085C56.2856 28.0085 56.579 27.9091 56.8143 27.7102C57.0496 27.508 57.2269 27.233 57.3462 26.8849C57.4689 26.5369 57.5302 26.1409 57.5302 25.6967C57.5302 25.2526 57.4689 24.8565 57.3462 24.5085C57.2269 24.1605 57.0496 23.8854 56.8143 23.6832C56.579 23.4811 56.2856 23.38 55.9343 23.38C55.5797 23.38 55.2814 23.4811 55.0394 23.6832C54.8008 23.8854 54.6201 24.1605 54.4975 24.5085C54.3782 24.8565 54.3185 25.2526 54.3185 25.6967C54.3185 26.1409 54.3782 26.5369 54.4975 26.8849C54.6201 27.233 54.8008 27.508 55.0394 27.7102C55.2814 27.9091 55.5797 28.0085 55.9343 28.0085ZM63.1779 19.3182V29.5H61.06V19.3182H63.1779ZM66.9924 19.3182V29.5H64.8745V19.3182H66.9924ZM72.1392 29.6491C71.367 29.6491 70.6991 29.4851 70.1357 29.157C69.5755 28.8255 69.143 28.3648 68.8381 27.7749C68.5331 27.1816 68.3807 26.4938 68.3807 25.7116C68.3807 24.9228 68.5331 24.2334 68.8381 23.6435C69.143 23.0502 69.5755 22.5895 70.1357 22.2614C70.6991 21.9299 71.367 21.7642 72.1392 21.7642C72.9115 21.7642 73.5777 21.9299 74.1378 22.2614C74.7012 22.5895 75.1354 23.0502 75.4403 23.6435C75.7453 24.2334 75.8977 24.9228 75.8977 25.7116C75.8977 26.4938 75.7453 27.1816 75.4403 27.7749C75.1354 28.3648 74.7012 28.8255 74.1378 29.157C73.5777 29.4851 72.9115 29.6491 72.1392 29.6491ZM72.1491 28.0085C72.5005 28.0085 72.7938 27.9091 73.0291 27.7102C73.2644 27.508 73.4418 27.233 73.5611 26.8849C73.6837 26.5369 73.745 26.1409 73.745 25.6967C73.745 25.2526 73.6837 24.8565 73.5611 24.5085C73.4418 24.1605 73.2644 23.8854 73.0291 23.6832C72.7938 23.4811 72.5005 23.38 72.1491 23.38C71.7945 23.38 71.4962 23.4811 71.2543 23.6832C71.0156 23.8854 70.835 24.1605 70.7124 24.5085C70.593 24.8565 70.5334 25.2526 70.5334 25.6967C70.5334 26.1409 70.593 26.5369 70.7124 26.8849C70.835 27.233 71.0156 27.508 71.2543 27.7102C71.4962 27.9091 71.7945 28.0085 72.1491 28.0085ZM78.5898 29.5L76.5117 21.8636H78.6545L79.8377 26.9943H79.9073L81.1403 21.8636H83.2433L84.4961 26.9645H84.5607L85.7241 21.8636H87.8619L85.7887 29.5H83.5465L82.234 24.6974H82.1396L80.8271 29.5H78.5898ZM98.7695 31.0114C97.7122 31.0114 96.771 30.8672 95.9457 30.5788C95.1204 30.2938 94.4227 29.8762 93.8526 29.326C93.2826 28.7725 92.8484 28.098 92.5501 27.3026C92.2518 26.5071 92.1026 25.6023 92.1026 24.5881C92.1026 23.5871 92.2518 22.679 92.5501 21.8636C92.8517 21.0483 93.2908 20.349 93.8675 19.7656C94.4442 19.179 95.1486 18.7282 95.9805 18.4134C96.8157 18.0985 97.7669 17.9411 98.8342 17.9411C99.8219 17.9411 100.703 18.0852 101.479 18.3736C102.258 18.6619 102.917 19.0729 103.458 19.6065C104.001 20.1368 104.414 20.7682 104.696 21.5007C104.981 22.2299 105.122 23.0369 105.118 23.9219C105.122 24.5317 105.069 25.0919 104.959 25.6023C104.85 26.1127 104.677 26.5585 104.442 26.9396C104.21 27.3175 103.905 27.6174 103.527 27.8395C103.15 28.0582 102.692 28.1825 102.155 28.2124C101.771 28.2422 101.459 28.214 101.221 28.1278C100.982 28.0417 100.8 27.9141 100.674 27.745C100.551 27.5727 100.471 27.3722 100.435 27.1435H100.375C100.296 27.3423 100.14 27.523 99.908 27.6854C99.676 27.8445 99.3926 27.9687 99.0579 28.0582C98.7264 28.1444 98.3735 28.1759 97.9989 28.1527C97.6078 28.1295 97.2366 28.0384 96.8853 27.8793C96.5373 27.7202 96.2274 27.4898 95.9556 27.1882C95.6871 26.8866 95.475 26.5137 95.3192 26.0696C95.1668 25.6255 95.0889 25.1117 95.0856 24.5284C95.0889 23.9517 95.1701 23.4496 95.3292 23.022C95.4916 22.5945 95.7054 22.2348 95.9705 21.9432C96.239 21.6515 96.5373 21.4228 96.8654 21.2571C97.1935 21.0914 97.5233 20.9853 97.8548 20.9389C98.2293 20.8826 98.5839 20.8826 98.9187 20.9389C99.2534 20.9953 99.5352 21.0864 99.7638 21.2124C99.9959 21.3383 100.14 21.4742 100.196 21.62H100.266V21.0632H101.822V25.9155C101.825 26.1442 101.877 26.3215 101.976 26.4474C102.076 26.5734 102.21 26.6364 102.379 26.6364C102.608 26.6364 102.798 26.5353 102.951 26.3331C103.106 26.1309 103.222 25.821 103.299 25.4034C103.378 24.9858 103.418 24.4538 103.418 23.8075C103.418 23.1844 103.335 22.6375 103.169 22.1669C103.007 21.6929 102.778 21.2902 102.483 20.9588C102.192 20.6241 101.852 20.3523 101.464 20.1435C101.076 19.9347 100.655 19.7822 100.201 19.6861C99.7506 19.59 99.2866 19.5419 98.8093 19.5419C97.984 19.5419 97.2631 19.6679 96.6467 19.9197C96.0302 20.1683 95.5165 20.518 95.1055 20.9688C94.6945 21.4195 94.3862 21.9482 94.1808 22.5547C93.9786 23.1579 93.8758 23.8158 93.8725 24.5284C93.8758 25.3139 93.9852 26.0099 94.2006 26.6165C94.4194 27.2197 94.7409 27.7268 95.1651 28.1378C95.5894 28.5488 96.113 28.8603 96.7362 29.0724C97.3593 29.2846 98.0752 29.3906 98.8839 29.3906C99.265 29.3906 99.6379 29.3641 100.002 29.3111C100.367 29.2547 100.697 29.1884 100.992 29.1122C101.287 29.0327 101.524 28.9564 101.703 28.8835L102.195 30.3253C101.986 30.4446 101.703 30.5556 101.345 30.6584C100.99 30.7644 100.589 30.849 100.142 30.9119C99.6976 30.9782 99.2402 31.0114 98.7695 31.0114ZM98.5408 26.517C98.9452 26.517 99.2667 26.4392 99.5053 26.2834C99.7473 26.1276 99.9196 25.8973 100.022 25.5923C100.128 25.2841 100.178 24.9046 100.172 24.4538C100.168 24.0561 100.117 23.7197 100.017 23.4446C99.9213 23.1662 99.7539 22.9557 99.5153 22.8132C99.2799 22.6674 98.9518 22.5945 98.5309 22.5945C98.163 22.5945 97.8498 22.6723 97.5913 22.8281C97.3361 22.9839 97.1405 23.2027 97.0046 23.4844C96.872 23.7628 96.8041 24.0909 96.8008 24.4688C96.8041 24.8201 96.8604 25.1532 96.9698 25.468C97.0792 25.7796 97.2598 26.0331 97.5117 26.2287C97.7636 26.4209 98.1067 26.517 98.5408 26.517ZM112.219 22.2464C112.179 21.8454 112.008 21.5339 111.707 21.3118C111.405 21.0897 110.996 20.9787 110.479 20.9787C110.128 20.9787 109.831 21.0284 109.589 21.1278C109.347 21.224 109.161 21.3582 109.032 21.5305C108.906 21.7029 108.843 21.8984 108.843 22.1172C108.837 22.2995 108.875 22.4586 108.958 22.5945C109.044 22.7304 109.161 22.848 109.311 22.9474C109.46 23.0436 109.632 23.1281 109.828 23.201C110.023 23.2706 110.232 23.3303 110.454 23.38L111.369 23.5987C111.813 23.6982 112.221 23.8307 112.592 23.9964C112.963 24.1622 113.285 24.366 113.556 24.608C113.828 24.8499 114.039 25.1349 114.188 25.4631C114.34 25.7912 114.418 26.1674 114.421 26.5916C114.418 27.2147 114.259 27.755 113.944 28.2124C113.633 28.6664 113.182 29.0194 112.592 29.2713C112.005 29.5199 111.298 29.6442 110.469 29.6442C109.647 29.6442 108.931 29.5182 108.321 29.2663C107.715 29.0144 107.241 28.6416 106.899 28.1477C106.561 27.6506 106.384 27.0357 106.367 26.3033H108.45C108.474 26.6446 108.571 26.9297 108.744 27.1584C108.919 27.3838 109.153 27.5545 109.445 27.6705C109.74 27.7831 110.073 27.8395 110.444 27.8395C110.809 27.8395 111.125 27.7865 111.394 27.6804C111.665 27.5743 111.876 27.4268 112.025 27.2379C112.174 27.049 112.249 26.8319 112.249 26.5866C112.249 26.358 112.181 26.1657 112.045 26.0099C111.912 25.8542 111.717 25.7216 111.458 25.6122C111.203 25.5028 110.89 25.4034 110.519 25.3139L109.41 25.0355C108.552 24.8267 107.874 24.5002 107.377 24.0561C106.879 23.612 106.633 23.0137 106.636 22.2614C106.633 21.6449 106.797 21.1063 107.128 20.6456C107.463 20.1849 107.922 19.8253 108.505 19.5668C109.088 19.3082 109.751 19.179 110.494 19.179C111.249 19.179 111.909 19.3082 112.472 19.5668C113.039 19.8253 113.48 20.1849 113.795 20.6456C114.11 21.1063 114.272 21.6399 114.282 22.2464H112.219ZM122.949 21.8636L120.279 29.5H117.893L115.223 21.8636H117.46L119.046 27.3274H119.126L120.707 21.8636H122.949ZM124.033 29.5V21.8636H126.151V29.5H124.033ZM125.097 20.8793C124.782 20.8793 124.512 20.7749 124.286 20.5661C124.064 20.3539 123.953 20.1004 123.953 19.8054C123.953 19.5137 124.064 19.2635 124.286 19.0547C124.512 18.8426 124.782 18.7365 125.097 18.7365C125.411 18.7365 125.68 18.8426 125.902 19.0547C126.127 19.2635 126.24 19.5137 126.24 19.8054C126.24 20.1004 126.127 20.3539 125.902 20.5661C125.68 20.7749 125.411 20.8793 125.097 20.8793ZM130.025 29.6442C129.537 29.6442 129.103 29.5597 128.722 29.3906C128.341 29.2183 128.039 28.9647 127.817 28.63C127.599 28.2919 127.489 27.871 127.489 27.3672C127.489 26.9429 127.567 26.5866 127.723 26.2983C127.879 26.0099 128.091 25.7779 128.359 25.6023C128.628 25.4266 128.933 25.294 129.274 25.2045C129.619 25.1151 129.98 25.0521 130.358 25.0156C130.802 24.9692 131.16 24.9261 131.432 24.8864C131.703 24.8433 131.901 24.7803 132.023 24.6974C132.146 24.6146 132.207 24.492 132.207 24.3295V24.2997C132.207 23.9848 132.108 23.7412 131.909 23.5689C131.713 23.3965 131.435 23.3104 131.074 23.3104C130.693 23.3104 130.389 23.3949 130.164 23.5639C129.939 23.7296 129.789 23.9384 129.716 24.1903L127.758 24.0312C127.857 23.5672 128.053 23.1662 128.344 22.8281C128.636 22.4867 129.012 22.2249 129.473 22.0426C129.937 21.857 130.474 21.7642 131.084 21.7642C131.508 21.7642 131.914 21.8139 132.302 21.9134C132.693 22.0128 133.039 22.1669 133.341 22.3757C133.646 22.5845 133.886 22.853 134.062 23.1811C134.237 23.5059 134.325 23.8954 134.325 24.3494V29.5H132.317V28.4411H132.257C132.134 28.6797 131.97 28.8902 131.765 29.0724C131.559 29.2514 131.312 29.3923 131.024 29.495C130.736 29.5945 130.403 29.6442 130.025 29.6442ZM130.631 28.1825C130.943 28.1825 131.218 28.1212 131.456 27.9986C131.695 27.8726 131.882 27.7036 132.018 27.4915C132.154 27.2794 132.222 27.0391 132.222 26.7706V25.9602C132.156 26.0033 132.065 26.0431 131.949 26.0795C131.836 26.1127 131.708 26.1442 131.566 26.174C131.423 26.2005 131.281 26.2254 131.138 26.2486C130.996 26.2685 130.867 26.2867 130.751 26.3033C130.502 26.3397 130.285 26.3977 130.099 26.4773C129.914 26.5568 129.769 26.6645 129.667 26.8004C129.564 26.933 129.513 27.0987 129.513 27.2976C129.513 27.5859 129.617 27.8063 129.826 27.9588C130.038 28.108 130.306 28.1825 130.631 28.1825ZM140.03 21.8636V23.4545H135.431V21.8636H140.03ZM136.475 20.0341H138.593V27.1534C138.593 27.349 138.623 27.5014 138.683 27.6108C138.742 27.7169 138.825 27.7914 138.931 27.8345C139.041 27.8776 139.167 27.8991 139.309 27.8991C139.409 27.8991 139.508 27.8909 139.607 27.8743C139.707 27.8544 139.783 27.8395 139.836 27.8295L140.169 29.4055C140.063 29.4387 139.914 29.4768 139.722 29.5199C139.53 29.5663 139.296 29.5945 139.021 29.6044C138.51 29.6243 138.063 29.5563 137.678 29.4006C137.297 29.2448 137.001 29.0028 136.789 28.6747C136.576 28.3466 136.472 27.9323 136.475 27.4318V20.0341ZM141.613 19.3182H144.268L147.072 26.1591H147.192L149.996 19.3182H152.65V29.5H150.562V22.8729H150.478L147.843 29.4503H146.421L143.786 22.848H143.702V29.5H141.613V19.3182ZM156.562 29.6442C156.075 29.6442 155.64 29.5597 155.259 29.3906C154.878 29.2183 154.576 28.9647 154.354 28.63C154.136 28.2919 154.026 27.871 154.026 27.3672C154.026 26.9429 154.104 26.5866 154.26 26.2983C154.416 26.0099 154.628 25.7779 154.896 25.6023C155.165 25.4266 155.47 25.294 155.811 25.2045C156.156 25.1151 156.517 25.0521 156.895 25.0156C157.339 24.9692 157.697 24.9261 157.969 24.8864C158.241 24.8433 158.438 24.7803 158.56 24.6974C158.683 24.6146 158.744 24.492 158.744 24.3295V24.2997C158.744 23.9848 158.645 23.7412 158.446 23.5689C158.25 23.3965 157.972 23.3104 157.611 23.3104C157.23 23.3104 156.926 23.3949 156.701 23.5639C156.476 23.7296 156.326 23.9384 156.254 24.1903L154.295 24.0312C154.394 23.5672 154.59 23.1662 154.881 22.8281C155.173 22.4867 155.549 22.2249 156.01 22.0426C156.474 21.857 157.011 21.7642 157.621 21.7642C158.045 21.7642 158.451 21.8139 158.839 21.9134C159.23 22.0128 159.576 22.1669 159.878 22.3757C160.183 22.5845 160.423 22.853 160.599 23.1811C160.774 23.5059 160.862 23.8954 160.862 24.3494V29.5H158.854V28.4411H158.794C158.671 28.6797 158.507 28.8902 158.302 29.0724C158.096 29.2514 157.849 29.3923 157.561 29.495C157.273 29.5945 156.94 29.6442 156.562 29.6442ZM157.168 28.1825C157.48 28.1825 157.755 28.1212 157.994 27.9986C158.232 27.8726 158.42 27.7036 158.555 27.4915C158.691 27.2794 158.759 27.0391 158.759 26.7706V25.9602C158.693 26.0033 158.602 26.0431 158.486 26.0795C158.373 26.1127 158.246 26.1442 158.103 26.174C157.96 26.2005 157.818 26.2254 157.675 26.2486C157.533 26.2685 157.404 26.2867 157.288 26.3033C157.039 26.3397 156.822 26.3977 156.636 26.4773C156.451 26.5568 156.307 26.6645 156.204 26.8004C156.101 26.933 156.05 27.0987 156.05 27.2976C156.05 27.5859 156.154 27.8063 156.363 27.9588C156.575 28.108 156.844 28.1825 157.168 28.1825ZM164.424 27.3026L164.429 24.7621H164.738L167.184 21.8636H169.615L166.328 25.7017H165.826L164.424 27.3026ZM162.505 29.5V19.3182H164.623V29.5H162.505ZM167.278 29.5L165.031 26.174L166.443 24.6776L169.759 29.5H167.278Z" fill="white"/>
</g>
<defs>
<clipPath id="clip0_1_35">
<rect width="180" height="48" fill="white"/>
</clipPath>
<clipPath id="clip1_1_35">
<rect width="24" height="24" fill="white" transform="translate(10 12)"/>
</clipPath>
</defs>
</svg>
