<svg width="180" height="48" viewBox="0 0 180 48" fill="none" xmlns="http://www.w3.org/2000/svg">
<rect width="180" height="48" rx="6" fill="#09090B"/>
<path d="M35.86 26C35.94 25.34 36 24.68 36 24C36 23.32 35.94 22.66 35.86 22H39.24C39.4 22.64 39.5 23.31 39.5 24C39.5 24.69 39.4 25.36 39.24 26M34.09 31.56C34.69 30.45 35.15 29.25 35.47 28H38.42C37.4512 29.6683 35.9141 30.932 34.09 31.56ZM33.84 26H29.16C29.06 25.34 29 24.68 29 24C29 23.32 29.06 22.65 29.16 22H33.84C33.93 22.65 34 23.32 34 24C34 24.68 33.93 25.34 33.84 26ZM31.5 31.96C30.67 30.76 30 29.43 29.59 28H33.41C33 29.43 32.33 30.76 31.5 31.96ZM27.5 20H24.58C25.5386 18.327 27.0747 17.0612 28.9 16.44C28.3 17.55 27.85 18.75 27.5 20ZM24.58 28H27.5C27.85 29.25 28.3 30.45 28.9 31.56C27.0783 30.9323 25.5443 29.6682 24.58 28ZM23.76 26C23.6 25.36 23.5 24.69 23.5 24C23.5 23.31 23.6 22.64 23.76 22H27.14C27.06 22.66 27 23.32 27 24C27 24.68 27.06 25.34 27.14 26M31.5 16.03C32.33 17.23 33 18.57 33.41 20H29.59C30 18.57 30.67 17.23 31.5 16.03ZM38.42 20H35.47C35.1565 18.7616 34.6931 17.5661 34.09 16.44C35.93 17.07 37.46 18.34 38.42 20ZM31.5 14C25.97 14 21.5 18.5 21.5 24C21.5 26.6522 22.5536 29.1957 24.4289 31.0711C25.3575 31.9997 26.4599 32.7362 27.6732 33.2388C28.8864 33.7413 30.1868 34 31.5 34C34.1522 34 36.6957 32.9464 38.5711 31.0711C40.4464 29.1957 41.5 26.6522 41.5 24C41.5 22.6868 41.2413 21.3864 40.7388 20.1732C40.2362 18.9599 39.4997 17.8575 38.5711 16.9289C37.6425 16.0003 36.5401 15.2638 35.3268 14.7612C34.1136 14.2587 32.8132 14 31.5 14Z" fill="white"/>
<path d="M59.9084 22.2464C59.8686 21.8454 59.6979 21.5339 59.3963 21.3118C59.0947 21.0897 58.6854 20.9787 58.1683 20.9787C57.817 20.9787 57.5204 21.0284 57.2784 21.1278C57.0365 21.224 56.8509 21.3582 56.7216 21.5305C56.5956 21.7029 56.5327 21.8984 56.5327 22.1172C56.526 22.2995 56.5642 22.4586 56.647 22.5945C56.7332 22.7304 56.8509 22.848 57 22.9474C57.1491 23.0436 57.3215 23.1281 57.517 23.201C57.7126 23.2706 57.9214 23.3303 58.1435 23.38L59.0582 23.5987C59.5024 23.6982 59.91 23.8307 60.2812 23.9964C60.6525 24.1622 60.974 24.366 61.2457 24.608C61.5175 24.8499 61.728 25.1349 61.8771 25.4631C62.0296 25.7912 62.1075 26.1674 62.1108 26.5916C62.1075 27.2147 61.9484 27.755 61.6335 28.2124C61.322 28.6664 60.8712 29.0194 60.2812 29.2713C59.6946 29.5199 58.987 29.6442 58.1584 29.6442C57.3364 29.6442 56.6205 29.5182 56.0107 29.2663C55.4041 29.0144 54.9302 28.6416 54.5888 28.1477C54.2507 27.6506 54.0734 27.0357 54.0568 26.3033H56.1399C56.1631 26.6446 56.2609 26.9297 56.4332 27.1584C56.6089 27.3838 56.8426 27.5545 57.1342 27.6705C57.4292 27.7831 57.7623 27.8395 58.1335 27.8395C58.4981 27.8395 58.8146 27.7865 59.0831 27.6804C59.3549 27.5743 59.5653 27.4268 59.7145 27.2379C59.8636 27.049 59.9382 26.8319 59.9382 26.5866C59.9382 26.358 59.8703 26.1657 59.7344 26.0099C59.6018 25.8542 59.4063 25.7216 59.1477 25.6122C58.8925 25.5028 58.5793 25.4034 58.2081 25.3139L57.0994 25.0355C56.241 24.8267 55.5632 24.5002 55.0661 24.0561C54.5689 23.612 54.322 23.0137 54.3253 22.2614C54.322 21.6449 54.486 21.1063 54.8175 20.6456C55.1522 20.1849 55.6113 19.8253 56.1946 19.5668C56.7779 19.3082 57.4408 19.179 58.1832 19.179C58.9389 19.179 59.5985 19.3082 60.1619 19.5668C60.7287 19.8253 61.1695 20.1849 61.4844 20.6456C61.7992 21.1063 61.9616 21.6399 61.9716 22.2464H59.9084ZM70.6383 21.8636L67.9686 29.5H65.5822L62.9125 21.8636H65.1497L66.7356 27.3274H66.8152L68.3961 21.8636H70.6383ZM71.7619 19.3182H74.4167L77.2207 26.1591H77.34L80.144 19.3182H82.7988V29.5H80.7108V22.8729H80.6262L77.9913 29.4503H76.5694L73.9345 22.848H73.85V29.5H71.7619V19.3182ZM86.7102 29.6442C86.223 29.6442 85.7888 29.5597 85.4077 29.3906C85.0265 29.2183 84.7249 28.9647 84.5028 28.63C84.2841 28.2919 84.1747 27.871 84.1747 27.3672C84.1747 26.9429 84.2526 26.5866 84.4084 26.2983C84.5642 26.0099 84.7763 25.7779 85.0447 25.6023C85.3132 25.4266 85.6181 25.294 85.9595 25.2045C86.3042 25.1151 86.6655 25.0521 87.0433 25.0156C87.4875 24.9692 87.8454 24.9261 88.1172 24.8864C88.389 24.8433 88.5862 24.7803 88.7088 24.6974C88.8314 24.6146 88.8928 24.492 88.8928 24.3295V24.2997C88.8928 23.9848 88.7933 23.7412 88.5945 23.5689C88.3989 23.3965 88.1205 23.3104 87.7592 23.3104C87.3781 23.3104 87.0748 23.3949 86.8494 23.5639C86.6241 23.7296 86.4749 23.9384 86.402 24.1903L84.4432 24.0312C84.5426 23.5672 84.7382 23.1662 85.0298 22.8281C85.3215 22.4867 85.6977 22.2249 86.1584 22.0426C86.6224 21.857 87.1593 21.7642 87.7692 21.7642C88.1934 21.7642 88.5994 21.8139 88.9872 21.9134C89.3783 22.0128 89.7247 22.1669 90.0263 22.3757C90.3312 22.5845 90.5715 22.853 90.7472 23.1811C90.9228 23.5059 91.0107 23.8954 91.0107 24.3494V29.5H89.0021V28.4411H88.9425C88.8198 28.6797 88.6558 28.8902 88.4503 29.0724C88.2448 29.2514 87.9979 29.3923 87.7095 29.495C87.4212 29.5945 87.0881 29.6442 86.7102 29.6442ZM87.3168 28.1825C87.6283 28.1825 87.9034 28.1212 88.142 27.9986C88.3807 27.8726 88.5679 27.7036 88.7038 27.4915C88.8397 27.2794 88.9077 27.0391 88.9077 26.7706V25.9602C88.8414 26.0033 88.7502 26.0431 88.6342 26.0795C88.5215 26.1127 88.3939 26.1442 88.2514 26.174C88.1089 26.2005 87.9664 26.2254 87.8239 26.2486C87.6813 26.2685 87.5521 26.2867 87.4361 26.3033C87.1875 26.3397 86.9704 26.3977 86.7848 26.4773C86.5992 26.5568 86.455 26.6645 86.3523 26.8004C86.2495 26.933 86.1982 27.0987 86.1982 27.2976C86.1982 27.5859 86.3026 27.8063 86.5114 27.9588C86.7235 28.108 86.992 28.1825 87.3168 28.1825ZM94.5728 27.3026L94.5778 24.7621H94.886L97.332 21.8636H99.7631L96.4769 25.7017H95.9748L94.5728 27.3026ZM92.6538 29.5V19.3182H94.7717V29.5H92.6538ZM97.4265 29.5L95.1793 26.174L96.5913 24.6776L99.9073 29.5H97.4265ZM106.374 29.5L103.461 19.3182H105.812L107.498 26.3928H107.582L109.442 19.3182H111.455L113.309 26.4077H113.399L115.084 19.3182H117.436L114.523 29.5H112.425L110.486 22.843H110.406L108.472 29.5H106.374ZM121.208 29.6491C120.423 29.6491 119.746 29.4901 119.18 29.1719C118.616 28.8504 118.182 28.3963 117.877 27.8097C117.572 27.2197 117.42 26.522 117.42 25.7166C117.42 24.9311 117.572 24.2417 117.877 23.6484C118.182 23.0552 118.611 22.5928 119.165 22.2614C119.722 21.9299 120.375 21.7642 121.124 21.7642C121.627 21.7642 122.096 21.8454 122.531 22.0078C122.968 22.1669 123.349 22.4072 123.674 22.7287C124.002 23.0502 124.257 23.4545 124.44 23.9418C124.622 24.4257 124.713 24.9924 124.713 25.642V26.2237H118.265V24.9112H122.719C122.719 24.6063 122.653 24.3362 122.521 24.1009C122.388 23.8655 122.204 23.6816 121.969 23.549C121.737 23.4131 121.467 23.3452 121.158 23.3452C120.837 23.3452 120.552 23.4197 120.303 23.5689C120.058 23.7147 119.866 23.9119 119.727 24.1605C119.587 24.4058 119.516 24.6792 119.513 24.9808V26.2287C119.513 26.6065 119.582 26.933 119.722 27.2081C119.864 27.4832 120.065 27.6953 120.323 27.8445C120.582 27.9936 120.888 28.0682 121.243 28.0682C121.478 28.0682 121.694 28.035 121.889 27.9688C122.085 27.9025 122.252 27.803 122.391 27.6705C122.531 27.5379 122.637 27.3755 122.71 27.1832L124.668 27.3125C124.569 27.7831 124.365 28.1941 124.057 28.5455C123.752 28.8935 123.357 29.1652 122.874 29.3608C122.393 29.553 121.838 29.6491 121.208 29.6491ZM126.135 29.5V19.3182H128.253V23.1463H128.317C128.41 22.9408 128.545 22.732 128.72 22.5199C128.899 22.3045 129.131 22.1255 129.416 21.983C129.705 21.8371 130.063 21.7642 130.49 21.7642C131.047 21.7642 131.561 21.91 132.031 22.2017C132.502 22.4901 132.878 22.9259 133.16 23.5092C133.442 24.0893 133.582 24.8168 133.582 25.6918C133.582 26.5436 133.445 27.2628 133.17 27.8494C132.898 28.4328 132.527 28.8752 132.056 29.1768C131.589 29.4751 131.065 29.6243 130.485 29.6243C130.074 29.6243 129.724 29.5563 129.436 29.4205C129.151 29.2846 128.917 29.1139 128.735 28.9084C128.553 28.6996 128.414 28.4891 128.317 28.277H128.223V29.5H126.135ZM128.208 25.6818C128.208 26.1359 128.271 26.532 128.397 26.87C128.523 27.2081 128.705 27.4716 128.944 27.6605C129.183 27.8461 129.473 27.9389 129.814 27.9389C130.159 27.9389 130.45 27.8445 130.689 27.6555C130.928 27.4633 131.108 27.1982 131.231 26.8601C131.357 26.5187 131.42 26.1259 131.42 25.6818C131.42 25.241 131.358 24.8532 131.236 24.5185C131.113 24.1837 130.933 23.9219 130.694 23.733C130.455 23.544 130.162 23.4496 129.814 23.4496C129.469 23.4496 129.178 23.5407 128.939 23.723C128.704 23.9053 128.523 24.1638 128.397 24.4986C128.271 24.8333 128.208 25.2277 128.208 25.6818ZM141.349 24.0412L139.41 24.1605C139.377 23.9948 139.306 23.8456 139.197 23.7131C139.087 23.5772 138.943 23.4695 138.764 23.3899C138.588 23.3071 138.378 23.2656 138.133 23.2656C137.805 23.2656 137.528 23.3352 137.302 23.4744C137.077 23.6103 136.964 23.7926 136.964 24.0213C136.964 24.2036 137.037 24.3577 137.183 24.4837C137.329 24.6096 137.579 24.7107 137.934 24.7869L139.316 25.0653C140.058 25.2178 140.612 25.4631 140.976 25.8011C141.341 26.1392 141.523 26.5833 141.523 27.1335C141.523 27.634 141.376 28.0732 141.081 28.451C140.789 28.8288 140.388 29.1238 139.878 29.3359C139.371 29.5447 138.786 29.6491 138.123 29.6491C137.112 29.6491 136.306 29.4387 135.706 29.0178C135.11 28.5935 134.76 28.0168 134.657 27.2876L136.741 27.1783C136.804 27.4865 136.956 27.7218 137.198 27.8842C137.44 28.0433 137.75 28.1229 138.128 28.1229C138.499 28.1229 138.797 28.0516 139.023 27.9091C139.251 27.7633 139.367 27.576 139.371 27.3473C139.367 27.1551 139.286 26.9976 139.127 26.875C138.968 26.7491 138.723 26.6529 138.391 26.5866L137.069 26.3232C136.323 26.174 135.768 25.9155 135.403 25.5476C135.042 25.1797 134.861 24.7107 134.861 24.1406C134.861 23.6501 134.994 23.2275 135.259 22.8729C135.528 22.5182 135.904 22.2448 136.388 22.0526C136.875 21.8603 137.445 21.7642 138.098 21.7642C139.062 21.7642 139.821 21.968 140.375 22.3757C140.932 22.7834 141.256 23.3385 141.349 24.0412ZM142.857 29.5V21.8636H144.975V29.5H142.857ZM143.921 20.8793C143.606 20.8793 143.336 20.7749 143.11 20.5661C142.888 20.3539 142.777 20.1004 142.777 19.8054C142.777 19.5137 142.888 19.2635 143.11 19.0547C143.336 18.8426 143.606 18.7365 143.921 18.7365C144.236 18.7365 144.504 18.8426 144.726 19.0547C144.952 19.2635 145.064 19.5137 145.064 19.8054C145.064 20.1004 144.952 20.3539 144.726 20.5661C144.504 20.7749 144.236 20.8793 143.921 20.8793ZM150.733 21.8636V23.4545H146.134V21.8636H150.733ZM147.178 20.0341H149.296V27.1534C149.296 27.349 149.326 27.5014 149.386 27.6108C149.445 27.7169 149.528 27.7914 149.634 27.8345C149.744 27.8776 149.87 27.8991 150.012 27.8991C150.112 27.8991 150.211 27.8909 150.311 27.8743C150.41 27.8544 150.486 27.8395 150.539 27.8295L150.872 29.4055C150.766 29.4387 150.617 29.4768 150.425 29.5199C150.233 29.5663 149.999 29.5945 149.724 29.6044C149.213 29.6243 148.766 29.5563 148.382 29.4006C148 29.2448 147.704 29.0028 147.492 28.6747C147.28 28.3466 147.175 27.9323 147.178 27.4318V20.0341ZM155.511 29.6491C154.725 29.6491 154.049 29.4901 153.482 29.1719C152.919 28.8504 152.485 28.3963 152.18 27.8097C151.875 27.2197 151.722 26.522 151.722 25.7166C151.722 24.9311 151.875 24.2417 152.18 23.6484C152.485 23.0552 152.914 22.5928 153.468 22.2614C154.024 21.9299 154.677 21.7642 155.426 21.7642C155.93 21.7642 156.399 21.8454 156.833 22.0078C157.271 22.1669 157.652 22.4072 157.977 22.7287C158.305 23.0502 158.56 23.4545 158.742 23.9418C158.925 24.4257 159.016 24.9924 159.016 25.642V26.2237H152.568V24.9112H157.022C157.022 24.6063 156.956 24.3362 156.823 24.1009C156.691 23.8655 156.507 23.6816 156.271 23.549C156.039 23.4131 155.769 23.3452 155.461 23.3452C155.14 23.3452 154.855 23.4197 154.606 23.5689C154.361 23.7147 154.169 23.9119 154.029 24.1605C153.89 24.4058 153.819 24.6792 153.816 24.9808V26.2287C153.816 26.6065 153.885 26.933 154.024 27.2081C154.167 27.4832 154.367 27.6953 154.626 27.8445C154.884 27.9936 155.191 28.0682 155.546 28.0682C155.781 28.0682 155.996 28.035 156.192 27.9688C156.387 27.9025 156.555 27.803 156.694 27.6705C156.833 27.5379 156.939 27.3755 157.012 27.1832L158.971 27.3125C158.872 27.7831 158.668 28.1941 158.36 28.5455C158.055 28.8935 157.66 29.1652 157.176 29.3608C156.696 29.553 156.141 29.6491 155.511 29.6491Z" fill="white"/>
</svg>
