<svg width="150" height="32" viewBox="0 0 150 32" fill="none" xmlns="http://www.w3.org/2000/svg">
<rect width="150" height="32" rx="6" fill="#09090B"/>
<path d="M28.4067 17.3333C28.46 16.8933 28.5 16.4533 28.5 16C28.5 15.5467 28.46 15.1067 28.4067 14.6667H30.66C30.7667 15.0933 30.8333 15.54 30.8333 16C30.8333 16.46 30.7667 16.9067 30.66 17.3333M27.2267 21.04C27.6267 20.3 27.9333 19.5 28.1467 18.6667H30.1133C29.4674 19.7789 28.4427 20.6213 27.2267 21.04ZM27.06 17.3333H23.94C23.8733 16.8933 23.8333 16.4533 23.8333 16C23.8333 15.5467 23.8733 15.1 23.94 14.6667H27.06C27.12 15.1 27.1667 15.5467 27.1667 16C27.1667 16.4533 27.12 16.8933 27.06 17.3333ZM25.5 21.3067C24.9467 20.5067 24.5 19.62 24.2267 18.6667H26.7733C26.5 19.62 26.0533 20.5067 25.5 21.3067ZM22.8333 13.3333H20.8867C21.5258 12.218 22.5498 11.3742 23.7667 10.96C23.3667 11.7 23.0667 12.5 22.8333 13.3333ZM20.8867 18.6667H22.8333C23.0667 19.5 23.3667 20.3 23.7667 21.04C22.5522 20.6215 21.5295 19.7788 20.8867 18.6667ZM20.34 17.3333C20.2333 16.9067 20.1667 16.46 20.1667 16C20.1667 15.54 20.2333 15.0933 20.34 14.6667H22.5933C22.54 15.1067 22.5 15.5467 22.5 16C22.5 16.4533 22.54 16.8933 22.5933 17.3333M25.5 10.6867C26.0533 11.4867 26.5 12.38 26.7733 13.3333H24.2267C24.5 12.38 24.9467 11.4867 25.5 10.6867ZM30.1133 13.3333H28.1467C27.9377 12.5078 27.6287 11.7107 27.2267 10.96C28.4533 11.38 29.4733 12.2267 30.1133 13.3333ZM25.5 9.33334C21.8133 9.33334 18.8333 12.3333 18.8333 16C18.8333 17.7681 19.5357 19.4638 20.786 20.7141C21.405 21.3331 22.1399 21.8242 22.9488 22.1592C23.7576 22.4942 24.6245 22.6667 25.5 22.6667C27.2681 22.6667 28.9638 21.9643 30.214 20.7141C31.4643 19.4638 32.1667 17.7681 32.1667 16C32.1667 15.1245 31.9942 14.2576 31.6592 13.4488C31.3242 12.6399 30.8331 11.905 30.214 11.286C29.595 10.6669 28.8601 10.1758 28.0512 9.84081C27.2424 9.50578 26.3755 9.33334 25.5 9.33334Z" fill="white"/>
<path d="M46.9929 14.2827C46.9588 13.9389 46.8125 13.6719 46.554 13.4815C46.2955 13.2912 45.9446 13.196 45.5014 13.196C45.2003 13.196 44.946 13.2386 44.7386 13.3239C44.5313 13.4062 44.3722 13.5213 44.2614 13.669C44.1534 13.8168 44.0994 13.9844 44.0994 14.1719C44.0938 14.3281 44.1264 14.4645 44.1974 14.581C44.2713 14.6974 44.3722 14.7983 44.5 14.8835C44.6278 14.9659 44.7756 15.0384 44.9432 15.1009C45.1108 15.1605 45.2898 15.2116 45.4801 15.2543L46.2642 15.4418C46.6449 15.527 46.9943 15.6406 47.3125 15.7827C47.6307 15.9247 47.9063 16.0994 48.1392 16.3068C48.3722 16.5142 48.5526 16.7585 48.6804 17.0398C48.8111 17.321 48.8778 17.6435 48.8807 18.0071C48.8778 18.5412 48.7415 19.0043 48.4716 19.3963C48.2045 19.7855 47.8182 20.0881 47.3125 20.304C46.8097 20.517 46.2031 20.6236 45.4929 20.6236C44.7884 20.6236 44.1747 20.5156 43.652 20.2997C43.1321 20.0838 42.7259 19.7642 42.4332 19.3409C42.1435 18.9148 41.9915 18.3878 41.9773 17.7599H43.7628C43.7827 18.0526 43.8665 18.2969 44.0142 18.4929C44.1648 18.6861 44.3651 18.8324 44.6151 18.9318C44.8679 19.0284 45.1534 19.0767 45.4716 19.0767C45.7841 19.0767 46.0554 19.0312 46.2855 18.9403C46.5185 18.8494 46.6989 18.723 46.8267 18.5611C46.9545 18.3991 47.0185 18.2131 47.0185 18.0028C47.0185 17.8068 46.9602 17.642 46.8438 17.5085C46.7301 17.375 46.5625 17.2614 46.3409 17.1676C46.1222 17.0739 45.8537 16.9886 45.5355 16.9119L44.5852 16.6733C43.8494 16.4943 43.2685 16.2145 42.8423 15.8338C42.4162 15.4531 42.2045 14.9403 42.2074 14.2955C42.2045 13.767 42.3452 13.3054 42.6293 12.9105C42.9162 12.5156 43.3097 12.2074 43.8097 11.9858C44.3097 11.7642 44.8778 11.6534 45.5142 11.6534C46.1619 11.6534 46.7273 11.7642 47.2102 11.9858C47.696 12.2074 48.0739 12.5156 48.3438 12.9105C48.6136 13.3054 48.7528 13.7628 48.7614 14.2827H46.9929ZM56.19 13.9545L53.9016 20.5H51.8562L49.5678 13.9545H51.4854L52.8448 18.6378H52.913L54.2681 13.9545H56.19ZM57.1531 11.7727H59.4286L61.832 17.6364H61.9343L64.3377 11.7727H66.6133V20.5H64.8235V14.8196H64.7511L62.4925 20.4574H61.2738L59.0153 14.7983H58.9428V20.5H57.1531V11.7727ZM69.9659 20.6236C69.5483 20.6236 69.1761 20.5511 68.8494 20.4062C68.5227 20.2585 68.2642 20.0412 68.0739 19.7543C67.8864 19.4645 67.7926 19.1037 67.7926 18.6719C67.7926 18.3082 67.8594 18.0028 67.9929 17.7557C68.1264 17.5085 68.3082 17.3097 68.5384 17.1591C68.7685 17.0085 69.0298 16.8949 69.3224 16.8182C69.6179 16.7415 69.9276 16.6875 70.2514 16.6562C70.6321 16.6165 70.9389 16.5795 71.1719 16.5455C71.4048 16.5085 71.5739 16.4545 71.679 16.3835C71.7841 16.3125 71.8366 16.2074 71.8366 16.0682V16.0426C71.8366 15.7727 71.7514 15.5639 71.581 15.4162C71.4134 15.2685 71.1747 15.1946 70.8651 15.1946C70.5384 15.1946 70.2784 15.267 70.0852 15.4119C69.892 15.554 69.7642 15.733 69.7017 15.9489L68.0227 15.8125C68.108 15.4148 68.2756 15.071 68.5256 14.7812C68.7756 14.4886 69.098 14.2642 69.4929 14.108C69.8906 13.9489 70.3509 13.8693 70.8736 13.8693C71.2372 13.8693 71.5852 13.9119 71.9176 13.9972C72.2528 14.0824 72.5497 14.2145 72.8082 14.3935C73.0696 14.5724 73.2756 14.8026 73.4261 15.0838C73.5767 15.3622 73.652 15.696 73.652 16.0852V20.5H71.9304V19.5923H71.8793C71.7741 19.7969 71.6335 19.9773 71.4574 20.1335C71.2812 20.2869 71.0696 20.4077 70.8224 20.4957C70.5753 20.581 70.2898 20.6236 69.9659 20.6236ZM70.4858 19.3707C70.7528 19.3707 70.9886 19.3182 71.1932 19.2131C71.3977 19.1051 71.5582 18.9602 71.6747 18.7784C71.7912 18.5966 71.8494 18.3906 71.8494 18.1605V17.4659C71.7926 17.5028 71.7145 17.5369 71.6151 17.5682C71.5185 17.5966 71.4091 17.6236 71.2869 17.6491C71.1648 17.6719 71.0426 17.6932 70.9205 17.7131C70.7983 17.7301 70.6875 17.7457 70.5881 17.7599C70.375 17.7912 70.1889 17.8409 70.0298 17.9091C69.8707 17.9773 69.7472 18.0696 69.6591 18.1861C69.571 18.2997 69.527 18.4418 69.527 18.6122C69.527 18.8594 69.6165 19.0483 69.7955 19.179C69.9773 19.3068 70.2074 19.3707 70.4858 19.3707ZM76.7053 18.6165L76.7095 16.4389H76.9737L79.0703 13.9545H81.1541L78.3374 17.2443H77.907L76.7053 18.6165ZM75.0604 20.5V11.7727H76.8757V20.5H75.0604ZM79.1513 20.5L77.2251 17.6491L78.4354 16.3665L81.2777 20.5H79.1513ZM86.8207 20.5L84.3235 11.7727H86.3391L87.7837 17.8366H87.8562L89.4499 11.7727H91.1758L92.7653 17.8494H92.842L94.2866 11.7727H96.3022L93.805 20.5H92.0067L90.3448 14.794H90.2766L88.619 20.5H86.8207ZM99.5355 20.6278C98.8622 20.6278 98.2827 20.4915 97.7969 20.2188C97.3139 19.9432 96.9418 19.554 96.6804 19.0511C96.419 18.5455 96.2884 17.9474 96.2884 17.2571C96.2884 16.5838 96.419 15.9929 96.6804 15.4844C96.9418 14.9759 97.3097 14.5795 97.7841 14.2955C98.2614 14.0114 98.821 13.8693 99.4631 13.8693C99.8949 13.8693 100.297 13.9389 100.669 14.0781C101.044 14.2145 101.371 14.4205 101.649 14.696C101.93 14.9716 102.149 15.3182 102.305 15.7358C102.462 16.1506 102.54 16.6364 102.54 17.1932V17.6918H97.0128V16.5668H100.831C100.831 16.3054 100.774 16.0739 100.661 15.8722C100.547 15.6705 100.389 15.5128 100.188 15.3991C99.9886 15.2827 99.7571 15.2244 99.4929 15.2244C99.2173 15.2244 98.973 15.2884 98.7599 15.4162C98.5497 15.5412 98.3849 15.7102 98.2656 15.9233C98.1463 16.1335 98.0852 16.3679 98.0824 16.6264V17.696C98.0824 18.0199 98.142 18.2997 98.2614 18.5355C98.3835 18.7713 98.5554 18.9531 98.777 19.081C98.9986 19.2088 99.2614 19.2727 99.5653 19.2727C99.767 19.2727 99.9517 19.2443 100.119 19.1875C100.287 19.1307 100.43 19.0455 100.55 18.9318C100.669 18.8182 100.76 18.679 100.822 18.5142L102.501 18.625C102.416 19.0284 102.241 19.3807 101.977 19.6818C101.716 19.9801 101.378 20.2131 100.963 20.3807C100.551 20.5455 100.075 20.6278 99.5355 20.6278ZM103.759 20.5V11.7727H105.574V15.054H105.629C105.709 14.8778 105.824 14.6989 105.974 14.517C106.128 14.3324 106.327 14.179 106.571 14.0568C106.818 13.9318 107.125 13.8693 107.491 13.8693C107.969 13.8693 108.409 13.9943 108.812 14.2443C109.216 14.4915 109.538 14.8651 109.78 15.3651C110.021 15.8622 110.142 16.4858 110.142 17.2358C110.142 17.9659 110.024 18.5824 109.788 19.0852C109.555 19.5852 109.237 19.9645 108.834 20.223C108.433 20.4787 107.984 20.6065 107.487 20.6065C107.135 20.6065 106.835 20.5483 106.588 20.4318C106.344 20.3153 106.143 20.169 105.987 19.9929C105.831 19.8139 105.712 19.6335 105.629 19.4517H105.548V20.5H103.759ZM105.536 17.2273C105.536 17.6165 105.589 17.956 105.697 18.2457C105.805 18.5355 105.962 18.7614 106.166 18.9233C106.371 19.0824 106.619 19.1619 106.912 19.1619C107.207 19.1619 107.457 19.081 107.662 18.919C107.866 18.7543 108.021 18.527 108.126 18.2372C108.234 17.9446 108.288 17.608 108.288 17.2273C108.288 16.8494 108.236 16.517 108.131 16.2301C108.026 15.9432 107.871 15.7187 107.666 15.5568C107.462 15.3949 107.21 15.3139 106.912 15.3139C106.616 15.3139 106.366 15.392 106.162 15.5483C105.96 15.7045 105.805 15.9261 105.697 16.2131C105.589 16.5 105.536 16.8381 105.536 17.2273ZM116.799 15.821L115.137 15.9233C115.109 15.7812 115.048 15.6534 114.954 15.5398C114.86 15.4233 114.737 15.331 114.583 15.2628C114.433 15.1918 114.252 15.1562 114.042 15.1562C113.761 15.1562 113.524 15.2159 113.331 15.3352C113.137 15.4517 113.041 15.608 113.041 15.804C113.041 15.9602 113.103 16.0923 113.228 16.2003C113.353 16.3082 113.568 16.3949 113.872 16.4602L115.056 16.6989C115.693 16.8295 116.167 17.0398 116.48 17.3295C116.792 17.6193 116.949 18 116.949 18.4716C116.949 18.9006 116.822 19.277 116.569 19.6009C116.319 19.9247 115.975 20.1776 115.538 20.3594C115.103 20.5384 114.602 20.6278 114.034 20.6278C113.167 20.6278 112.477 20.4474 111.963 20.0866C111.451 19.723 111.152 19.2287 111.064 18.6037L112.849 18.5099C112.903 18.7741 113.034 18.9759 113.241 19.1151C113.449 19.2514 113.714 19.3196 114.038 19.3196C114.356 19.3196 114.612 19.2585 114.805 19.1364C115.001 19.0114 115.1 18.8509 115.103 18.6548C115.1 18.4901 115.031 18.3551 114.895 18.25C114.758 18.142 114.548 18.0597 114.264 18.0028L113.13 17.777C112.491 17.6491 112.015 17.4276 111.703 17.1122C111.393 16.7969 111.238 16.3949 111.238 15.9062C111.238 15.4858 111.352 15.1236 111.579 14.8196C111.809 14.5156 112.132 14.2812 112.547 14.1165C112.964 13.9517 113.453 13.8693 114.012 13.8693C114.839 13.8693 115.49 14.044 115.964 14.3935C116.441 14.7429 116.72 15.2187 116.799 15.821ZM118.092 20.5V13.9545H119.907V20.5H118.092ZM119.004 13.1108C118.734 13.1108 118.502 13.0213 118.309 12.8423C118.119 12.6605 118.023 12.4432 118.023 12.1903C118.023 11.9403 118.119 11.7259 118.309 11.5469C118.502 11.3651 118.734 11.2741 119.004 11.2741C119.273 11.2741 119.504 11.3651 119.694 11.5469C119.887 11.7259 119.984 11.9403 119.984 12.1903C119.984 12.4432 119.887 12.6605 119.694 12.8423C119.504 13.0213 119.273 13.1108 119.004 13.1108ZM124.843 13.9545V15.3182H120.901V13.9545H124.843ZM121.796 12.3864H123.611V18.4886C123.611 18.6562 123.637 18.7869 123.688 18.8807C123.739 18.9716 123.81 19.0355 123.901 19.0724C123.995 19.1094 124.103 19.1278 124.225 19.1278C124.31 19.1278 124.395 19.1207 124.48 19.1065C124.566 19.0895 124.631 19.0767 124.676 19.0682L124.962 20.419C124.871 20.4474 124.743 20.4801 124.578 20.517C124.414 20.5568 124.213 20.581 123.978 20.5895C123.54 20.6065 123.157 20.5483 122.827 20.4148C122.5 20.2812 122.246 20.0739 122.064 19.7926C121.882 19.5114 121.793 19.1562 121.796 18.7273V12.3864ZM128.938 20.6278C128.265 20.6278 127.685 20.4915 127.199 20.2188C126.716 19.9432 126.344 19.554 126.083 19.0511C125.821 18.5455 125.691 17.9474 125.691 17.2571C125.691 16.5838 125.821 15.9929 126.083 15.4844C126.344 14.9759 126.712 14.5795 127.186 14.2955C127.664 14.0114 128.223 13.8693 128.865 13.8693C129.297 13.8693 129.699 13.9389 130.071 14.0781C130.446 14.2145 130.773 14.4205 131.051 14.696C131.333 14.9716 131.551 15.3182 131.708 15.7358C131.864 16.1506 131.942 16.6364 131.942 17.1932V17.6918H126.415V16.5668H130.233C130.233 16.3054 130.176 16.0739 130.063 15.8722C129.949 15.6705 129.792 15.5128 129.59 15.3991C129.391 15.2827 129.159 15.2244 128.895 15.2244C128.62 15.2244 128.375 15.2884 128.162 15.4162C127.952 15.5412 127.787 15.7102 127.668 15.9233C127.549 16.1335 127.488 16.3679 127.485 16.6264V17.696C127.485 18.0199 127.544 18.2997 127.664 18.5355C127.786 18.7713 127.958 18.9531 128.179 19.081C128.401 19.2088 128.664 19.2727 128.968 19.2727C129.169 19.2727 129.354 19.2443 129.522 19.1875C129.689 19.1307 129.833 19.0455 129.952 18.9318C130.071 18.8182 130.162 18.679 130.225 18.5142L131.904 18.625C131.819 19.0284 131.644 19.3807 131.38 19.6818C131.118 19.9801 130.78 20.2131 130.365 20.3807C129.953 20.5455 129.478 20.6278 128.938 20.6278Z" fill="white"/>
</svg>
