<svg width="150" height="32" viewBox="0 0 150 32" fill="none" xmlns="http://www.w3.org/2000/svg">
<rect width="150" height="32" rx="6" fill="black"/>
<g clip-path="url(#clip0_1_23)">
<path d="M21.6007 8.76866H24.054L18.694 14.8953L25 23.2307H20.0627L16.196 18.1747L11.7707 23.2307H9.316L15.0493 16.6773L9 8.76933H14.0627L17.558 13.3907L21.6007 8.76866ZM20.74 21.7627H22.0993L13.324 10.16H11.8653L20.74 21.7627Z" fill="white"/>
</g>
<path d="M33.7585 20.5V11.7727H39.5369V13.294H35.6037V15.3736H39.1534V16.8949H35.6037V20.5H33.7585ZM43.2209 20.6278C42.5589 20.6278 41.9865 20.4872 41.5036 20.206C41.0234 19.9219 40.6527 19.527 40.3913 19.0213C40.13 18.5128 39.9993 17.9233 39.9993 17.2528C39.9993 16.5767 40.13 15.9858 40.3913 15.4801C40.6527 14.9716 41.0234 14.5767 41.5036 14.2955C41.9865 14.0114 42.5589 13.8693 43.2209 13.8693C43.8828 13.8693 44.4538 14.0114 44.9339 14.2955C45.4169 14.5767 45.7891 14.9716 46.0504 15.4801C46.3118 15.9858 46.4425 16.5767 46.4425 17.2528C46.4425 17.9233 46.3118 18.5128 46.0504 19.0213C45.7891 19.527 45.4169 19.9219 44.9339 20.206C44.4538 20.4872 43.8828 20.6278 43.2209 20.6278ZM43.2294 19.2216C43.5305 19.2216 43.782 19.1364 43.9837 18.9659C44.1854 18.7926 44.3374 18.5568 44.4396 18.2585C44.5447 17.9602 44.5973 17.6207 44.5973 17.2401C44.5973 16.8594 44.5447 16.5199 44.4396 16.2216C44.3374 15.9233 44.1854 15.6875 43.9837 15.5142C43.782 15.3409 43.5305 15.2543 43.2294 15.2543C42.9254 15.2543 42.6697 15.3409 42.4624 15.5142C42.2578 15.6875 42.103 15.9233 41.9979 16.2216C41.8956 16.5199 41.8445 16.8594 41.8445 17.2401C41.8445 17.6207 41.8956 17.9602 41.9979 18.2585C42.103 18.5568 42.2578 18.7926 42.4624 18.9659C42.6697 19.1364 42.9254 19.2216 43.2294 19.2216ZM49.4382 11.7727V20.5H47.6229V11.7727H49.4382ZM52.7077 11.7727V20.5H50.8924V11.7727H52.7077ZM57.1193 20.6278C56.4574 20.6278 55.8849 20.4872 55.402 20.206C54.9219 19.9219 54.5511 19.527 54.2898 19.0213C54.0284 18.5128 53.8977 17.9233 53.8977 17.2528C53.8977 16.5767 54.0284 15.9858 54.2898 15.4801C54.5511 14.9716 54.9219 14.5767 55.402 14.2955C55.8849 14.0114 56.4574 13.8693 57.1193 13.8693C57.7812 13.8693 58.3523 14.0114 58.8324 14.2955C59.3153 14.5767 59.6875 14.9716 59.9489 15.4801C60.2102 15.9858 60.3409 16.5767 60.3409 17.2528C60.3409 17.9233 60.2102 18.5128 59.9489 19.0213C59.6875 19.527 59.3153 19.9219 58.8324 20.206C58.3523 20.4872 57.7812 20.6278 57.1193 20.6278ZM57.1278 19.2216C57.429 19.2216 57.6804 19.1364 57.8821 18.9659C58.0838 18.7926 58.2358 18.5568 58.3381 18.2585C58.4432 17.9602 58.4957 17.6207 58.4957 17.2401C58.4957 16.8594 58.4432 16.5199 58.3381 16.2216C58.2358 15.9233 58.0838 15.6875 57.8821 15.5142C57.6804 15.3409 57.429 15.2543 57.1278 15.2543C56.8239 15.2543 56.5682 15.3409 56.3608 15.5142C56.1563 15.6875 56.0014 15.9233 55.8963 16.2216C55.794 16.5199 55.7429 16.8594 55.7429 17.2401C55.7429 17.6207 55.794 17.9602 55.8963 18.2585C56.0014 18.5568 56.1563 18.7926 56.3608 18.9659C56.5682 19.1364 56.8239 19.2216 57.1278 19.2216ZM62.6484 20.5L60.8672 13.9545H62.7038L63.718 18.3523H63.7777L64.8345 13.9545H66.6371L67.7109 18.3267H67.7663L68.7635 13.9545H70.5959L68.8189 20.5H66.897L65.772 16.3835H65.6911L64.5661 20.5H62.6484ZM79.9453 21.7955C79.0391 21.7955 78.2322 21.6719 77.5249 21.4247C76.8175 21.1804 76.2195 20.8224 75.7308 20.3509C75.2422 19.8764 74.87 19.2983 74.6143 18.6165C74.3587 17.9347 74.2308 17.1591 74.2308 16.2898C74.2308 15.4318 74.3587 14.6534 74.6143 13.9545C74.8729 13.2557 75.2493 12.6562 75.7436 12.1562C76.2379 11.6534 76.8416 11.267 77.5547 10.9972C78.2706 10.7273 79.0859 10.5923 80.0007 10.5923C80.8473 10.5923 81.603 10.7159 82.2678 10.9631C82.9354 11.2102 83.5007 11.5625 83.9638 12.0199C84.4297 12.4744 84.7834 13.0156 85.0249 13.6435C85.2692 14.2685 85.3899 14.9602 85.3871 15.7188C85.3899 16.2415 85.3445 16.7216 85.2507 17.1591C85.157 17.5966 85.0092 17.9787 84.8075 18.3054C84.6087 18.6293 84.3473 18.8864 84.0234 19.0767C83.6996 19.2642 83.3075 19.3707 82.8473 19.3963C82.5178 19.4219 82.2507 19.3977 82.0462 19.3239C81.8416 19.25 81.6854 19.1406 81.5774 18.9957C81.4723 18.848 81.4041 18.6761 81.3729 18.4801H81.3217C81.2536 18.6506 81.12 18.8054 80.9212 18.9446C80.7223 19.081 80.4794 19.1875 80.1925 19.2642C79.9084 19.3381 79.6058 19.3651 79.2848 19.3452C78.9496 19.3253 78.6314 19.2472 78.3303 19.1108C78.032 18.9744 77.7663 18.777 77.5334 18.5185C77.3033 18.2599 77.1214 17.9403 76.9879 17.5597C76.8572 17.179 76.7905 16.7386 76.7876 16.2386C76.7905 15.7443 76.8601 15.3139 76.9964 14.9474C77.1357 14.581 77.3189 14.2727 77.5462 14.0227C77.7763 13.7727 78.032 13.5767 78.3132 13.4347C78.5945 13.2926 78.8771 13.2017 79.1612 13.1619C79.4822 13.1136 79.7862 13.1136 80.0732 13.1619C80.3601 13.2102 80.6016 13.2884 80.7976 13.3963C80.9964 13.5043 81.12 13.6207 81.1683 13.7457H81.228V13.2685H82.5618V17.4276C82.5646 17.6236 82.6087 17.7756 82.6939 17.8835C82.7791 17.9915 82.8942 18.0455 83.0391 18.0455C83.2351 18.0455 83.3984 17.9588 83.5291 17.7855C83.6626 17.6122 83.7621 17.3466 83.8274 16.9886C83.8956 16.6307 83.9297 16.1747 83.9297 15.6207C83.9297 15.0866 83.8587 14.6179 83.7166 14.2145C83.5774 13.8082 83.3814 13.4631 83.1286 13.179C82.8786 12.892 82.5874 12.6591 82.255 12.4801C81.9226 12.3011 81.5618 12.1705 81.1726 12.0881C80.7862 12.0057 80.3885 11.9645 79.9794 11.9645C79.272 11.9645 78.6541 12.0724 78.1257 12.2884C77.5973 12.5014 77.157 12.8011 76.8047 13.1875C76.4524 13.5739 76.1882 14.027 76.0121 14.5469C75.8388 15.0639 75.7507 15.6278 75.7479 16.2386C75.7507 16.9119 75.8445 17.5085 76.0291 18.0284C76.2166 18.5455 76.4922 18.9801 76.8558 19.3324C77.2195 19.6847 77.6683 19.9517 78.2024 20.1335C78.7365 20.3153 79.3501 20.4062 80.0433 20.4062C80.37 20.4062 80.6896 20.3835 81.0021 20.3381C81.3146 20.2898 81.5973 20.233 81.8501 20.1676C82.103 20.0994 82.3061 20.0341 82.4595 19.9716L82.8814 21.2074C82.7024 21.3097 82.4595 21.4048 82.1527 21.4929C81.8487 21.5838 81.505 21.6563 81.1214 21.7102C80.7408 21.767 80.3487 21.7955 79.9453 21.7955ZM79.7493 17.9432C80.0959 17.9432 80.3714 17.8764 80.576 17.7429C80.7834 17.6094 80.9311 17.4119 81.0192 17.1506C81.1101 16.8864 81.1527 16.5611 81.147 16.1747C81.1442 15.8338 81.1001 15.5455 81.0149 15.3097C80.9325 15.071 80.7891 14.8906 80.5845 14.7685C80.3828 14.6435 80.1016 14.581 79.7408 14.581C79.4254 14.581 79.157 14.6477 78.9354 14.7812C78.7166 14.9148 78.549 15.1023 78.4325 15.3438C78.3189 15.5824 78.2607 15.8636 78.2578 16.1875C78.2607 16.4886 78.3089 16.7741 78.4027 17.044C78.4964 17.3111 78.6513 17.5284 78.8672 17.696C79.0831 17.8608 79.3771 17.9432 79.7493 17.9432ZM91.4734 14.2827C91.4393 13.9389 91.293 13.6719 91.0344 13.4815C90.7759 13.2912 90.4251 13.196 89.9819 13.196C89.6808 13.196 89.4265 13.2386 89.2191 13.3239C89.0117 13.4062 88.8526 13.5213 88.7418 13.669C88.6339 13.8168 88.5799 13.9844 88.5799 14.1719C88.5742 14.3281 88.6069 14.4645 88.6779 14.581C88.7518 14.6974 88.8526 14.7983 88.9805 14.8835C89.1083 14.9659 89.256 15.0384 89.4237 15.1009C89.5913 15.1605 89.7702 15.2116 89.9606 15.2543L90.7447 15.4418C91.1254 15.527 91.4748 15.6406 91.793 15.7827C92.1112 15.9247 92.3867 16.0994 92.6197 16.3068C92.8526 16.5142 93.033 16.7585 93.1609 17.0398C93.2915 17.321 93.3583 17.6435 93.3612 18.0071C93.3583 18.5412 93.2219 19.0043 92.9521 19.3963C92.685 19.7855 92.2987 20.0881 91.793 20.304C91.2901 20.517 90.6836 20.6236 89.9734 20.6236C89.2688 20.6236 88.6552 20.5156 88.1325 20.2997C87.6126 20.0838 87.2063 19.7642 86.9137 19.3409C86.6239 18.9148 86.4719 18.3878 86.4577 17.7599H88.2433C88.2631 18.0526 88.3469 18.2969 88.4947 18.4929C88.6452 18.6861 88.8455 18.8324 89.0955 18.9318C89.3484 19.0284 89.6339 19.0767 89.9521 19.0767C90.2646 19.0767 90.5359 19.0312 90.766 18.9403C90.9989 18.8494 91.1793 18.723 91.3072 18.5611C91.435 18.3991 91.4989 18.2131 91.4989 18.0028C91.4989 17.8068 91.4407 17.642 91.3242 17.5085C91.2106 17.375 91.043 17.2614 90.8214 17.1676C90.6026 17.0739 90.3342 16.9886 90.016 16.9119L89.0657 16.6733C88.3299 16.4943 87.7489 16.2145 87.3228 15.8338C86.8967 15.4531 86.685 14.9403 86.6879 14.2955C86.685 13.767 86.8256 13.3054 87.1097 12.9105C87.3967 12.5156 87.7901 12.2074 88.2901 11.9858C88.7901 11.7642 89.3583 11.6534 89.9947 11.6534C90.6424 11.6534 91.2077 11.7642 91.6907 11.9858C92.1765 12.2074 92.5543 12.5156 92.8242 12.9105C93.0941 13.3054 93.2333 13.7628 93.2418 14.2827H91.4734ZM100.67 13.9545L98.3821 20.5H96.3366L94.0483 13.9545H95.9659L97.3253 18.6378H97.3935L98.7486 13.9545H100.67ZM101.599 20.5V13.9545H103.415V20.5H101.599ZM102.511 13.1108C102.241 13.1108 102.01 13.0213 101.817 12.8423C101.626 12.6605 101.531 12.4432 101.531 12.1903C101.531 11.9403 101.626 11.7259 101.817 11.5469C102.01 11.3651 102.241 11.2741 102.511 11.2741C102.781 11.2741 103.011 11.3651 103.202 11.5469C103.395 11.7259 103.491 11.9403 103.491 12.1903C103.491 12.4432 103.395 12.6605 103.202 12.8423C103.011 13.0213 102.781 13.1108 102.511 13.1108ZM106.735 20.6236C106.318 20.6236 105.946 20.5511 105.619 20.4062C105.292 20.2585 105.034 20.0412 104.843 19.7543C104.656 19.4645 104.562 19.1037 104.562 18.6719C104.562 18.3082 104.629 18.0028 104.762 17.7557C104.896 17.5085 105.078 17.3097 105.308 17.1591C105.538 17.0085 105.799 16.8949 106.092 16.8182C106.387 16.7415 106.697 16.6875 107.021 16.6562C107.402 16.6165 107.708 16.5795 107.941 16.5455C108.174 16.5085 108.343 16.4545 108.449 16.3835C108.554 16.3125 108.606 16.2074 108.606 16.0682V16.0426C108.606 15.7727 108.521 15.5639 108.35 15.4162C108.183 15.2685 107.944 15.1946 107.635 15.1946C107.308 15.1946 107.048 15.267 106.855 15.4119C106.662 15.554 106.534 15.733 106.471 15.9489L104.792 15.8125C104.877 15.4148 105.045 15.071 105.295 14.7812C105.545 14.4886 105.868 14.2642 106.262 14.108C106.66 13.9489 107.12 13.8693 107.643 13.8693C108.007 13.8693 108.355 13.9119 108.687 13.9972C109.022 14.0824 109.319 14.2145 109.578 14.3935C109.839 14.5724 110.045 14.8026 110.196 15.0838C110.346 15.3622 110.422 15.696 110.422 16.0852V20.5H108.7V19.5923H108.649C108.544 19.7969 108.403 19.9773 108.227 20.1335C108.051 20.2869 107.839 20.4077 107.592 20.4957C107.345 20.581 107.059 20.6236 106.735 20.6236ZM107.255 19.3707C107.522 19.3707 107.758 19.3182 107.963 19.2131C108.167 19.1051 108.328 18.9602 108.444 18.7784C108.561 18.5966 108.619 18.3906 108.619 18.1605V17.4659C108.562 17.5028 108.484 17.5369 108.385 17.5682C108.288 17.5966 108.179 17.6236 108.056 17.6491C107.934 17.6719 107.812 17.6932 107.69 17.7131C107.568 17.7301 107.457 17.7457 107.358 17.7599C107.145 17.7912 106.958 17.8409 106.799 17.9091C106.64 17.9773 106.517 18.0696 106.429 18.1861C106.341 18.2997 106.297 18.4418 106.297 18.6122C106.297 18.8594 106.386 19.0483 106.565 19.179C106.747 19.3068 106.977 19.3707 107.255 19.3707ZM115.311 13.9545V15.3182H111.37V13.9545H115.311ZM112.265 12.3864H114.08V18.4886C114.08 18.6562 114.105 18.7869 114.157 18.8807C114.208 18.9716 114.279 19.0355 114.37 19.0724C114.463 19.1094 114.571 19.1278 114.694 19.1278C114.779 19.1278 114.864 19.1207 114.949 19.1065C115.034 19.0895 115.1 19.0767 115.145 19.0682L115.431 20.419C115.34 20.4474 115.212 20.4801 115.047 20.517C114.882 20.5568 114.682 20.581 114.446 20.5895C114.009 20.6065 113.625 20.5483 113.296 20.4148C112.969 20.2812 112.715 20.0739 112.533 19.7926C112.351 19.5114 112.262 19.1562 112.265 18.7273V12.3864ZM116.669 11.7727H118.944L121.348 17.6364H121.45L123.853 11.7727H126.129V20.5H124.339V14.8196H124.267L122.008 20.4574H120.789L118.531 14.7983H118.458V20.5H116.669V11.7727ZM129.482 20.6236C129.064 20.6236 128.692 20.5511 128.365 20.4062C128.038 20.2585 127.78 20.0412 127.589 19.7543C127.402 19.4645 127.308 19.1037 127.308 18.6719C127.308 18.3082 127.375 18.0028 127.509 17.7557C127.642 17.5085 127.824 17.3097 128.054 17.1591C128.284 17.0085 128.545 16.8949 128.838 16.8182C129.134 16.7415 129.443 16.6875 129.767 16.6562C130.148 16.6165 130.455 16.5795 130.688 16.5455C130.92 16.5085 131.089 16.4545 131.195 16.3835C131.3 16.3125 131.352 16.2074 131.352 16.0682V16.0426C131.352 15.7727 131.267 15.5639 131.097 15.4162C130.929 15.2685 130.69 15.1946 130.381 15.1946C130.054 15.1946 129.794 15.267 129.601 15.4119C129.408 15.554 129.28 15.733 129.217 15.9489L127.538 15.8125C127.624 15.4148 127.791 15.071 128.041 14.7812C128.291 14.4886 128.614 14.2642 129.009 14.108C129.406 13.9489 129.866 13.8693 130.389 13.8693C130.753 13.8693 131.101 13.9119 131.433 13.9972C131.768 14.0824 132.065 14.2145 132.324 14.3935C132.585 14.5724 132.791 14.8026 132.942 15.0838C133.092 15.3622 133.168 15.696 133.168 16.0852V20.5H131.446V19.5923H131.395C131.29 19.7969 131.149 19.9773 130.973 20.1335C130.797 20.2869 130.585 20.4077 130.338 20.4957C130.091 20.581 129.805 20.6236 129.482 20.6236ZM130.001 19.3707C130.268 19.3707 130.504 19.3182 130.709 19.2131C130.913 19.1051 131.074 18.9602 131.19 18.7784C131.307 18.5966 131.365 18.3906 131.365 18.1605V17.4659C131.308 17.5028 131.23 17.5369 131.131 17.5682C131.034 17.5966 130.925 17.6236 130.803 17.6491C130.68 17.6719 130.558 17.6932 130.436 17.7131C130.314 17.7301 130.203 17.7457 130.104 17.7599C129.891 17.7912 129.705 17.8409 129.545 17.9091C129.386 17.9773 129.263 18.0696 129.175 18.1861C129.087 18.2997 129.043 18.4418 129.043 18.6122C129.043 18.8594 129.132 19.0483 129.311 19.179C129.493 19.3068 129.723 19.3707 130.001 19.3707ZM136.221 18.6165L136.225 16.4389H136.489L138.586 13.9545H140.67L137.853 17.2443H137.423L136.221 18.6165ZM134.576 20.5V11.7727H136.391V20.5H134.576ZM138.667 20.5L136.741 17.6491L137.951 16.3665L140.793 20.5H138.667Z" fill="white"/>
<defs>
<clipPath id="clip0_1_23">
<rect width="16" height="16" fill="white" transform="translate(9 8)"/>
</clipPath>
</defs>
</svg>
